<svg xmlns="http://www.w3.org/2000/svg" width="6.5" height="11.156" viewBox="0 0 6.5 11.156">
  <defs>
    <style>
      .cls-1 {
        fill-rule: evenodd;
      }
    </style>
  </defs>
  <path id="_" data-name="" class="cls-1" d="M2401.69,968.691l-5.2-5.2a0.349,0.349,0,0,0-.26-0.111,0.343,0.343,0,0,0-.25.111l-0.56.558a0.355,0.355,0,0,0,0,.514l4.38,4.386-4.38,4.386a0.354,0.354,0,0,0,0,.513l0.56,0.558a0.34,0.34,0,0,0,.25.112,0.346,0.346,0,0,0,.26-0.112l5.2-5.2a0.329,0.329,0,0,0,.11-0.256,0.332,0.332,0,0,0-.11-0.257h0Z" transform="translate(-2395.31 -963.375)"/>
</svg>
