<svg xmlns="http://www.w3.org/2000/svg" width="177.656" height="44.906" viewBox="0 0 177.656 44.906">
  <defs>
    <style>
      .cls-1 {
        fill-rule: evenodd;
      }
    </style>
  </defs>
  <path id="the_Firm" data-name="the Firm" class="cls-1" d="M3.863,26.379L2.779,31.271H0.348l-0.117.85H2.6l-1.86,8.745Q0.567,41.6.5,42.009a4.368,4.368,0,0,0-.066.659,2.373,2.373,0,0,0,.7,1.853,2.933,2.933,0,0,0,2.036.637,3.772,3.772,0,0,0,2.637-1.091,9.163,9.163,0,0,0,2.065-3.288l-0.542-.322A10.018,10.018,0,0,1,5.643,43.1a2.475,2.475,0,0,1-1.721.93,1.086,1.086,0,0,1-.872-0.388,1.541,1.541,0,0,1-.33-1.033,1.42,1.42,0,0,1,.015-0.183q0.014-.11.044-0.33l2.007-9.976H8.331l0.146-.85h-3.5l0.981-4.893H3.863ZM17.237,22.6q-1.187.132-1.809,0.176t-1.062.044q-0.279,0-1.113-.044-0.483-.015-0.747-0.015l-0.161.806q0.117,0,.322.015,1.758,0.088,1.758,1.128a4.46,4.46,0,0,1-.059.637q-0.059.388-.19,1.018L10.4,44.894h2.285l1.26-6.152a11.3,11.3,0,0,1,2.446-4.973q1.89-2.278,3.34-2.278a1.231,1.231,0,0,1,.923.293,1.379,1.379,0,0,1,.278.967,4.52,4.52,0,0,1-.168,1q-0.169.667-.52,1.663L18.2,41.086a6.376,6.376,0,0,0-.293,1,4.588,4.588,0,0,0-.1.923,2.077,2.077,0,0,0,.623,1.611,2.45,2.45,0,0,0,1.721.571,3.657,3.657,0,0,0,2.446-.93,8.98,8.98,0,0,0,2.051-2.937L24.02,41a11.048,11.048,0,0,1-1.538,2.256,1.883,1.883,0,0,1-1.318.674,1.021,1.021,0,0,1-.718-0.242A0.877,0.877,0,0,1,20.182,43a3.515,3.515,0,0,1,.1-0.74,6.093,6.093,0,0,1,.3-0.945l1.758-4.951a20.514,20.514,0,0,0,.674-2.146,6.4,6.4,0,0,0,.205-1.443,2.286,2.286,0,0,0-.74-1.809,2.963,2.963,0,0,0-2.029-.652,4.593,4.593,0,0,0-2.82,1.033,13.934,13.934,0,0,0-2.908,3.376ZM34.164,43.137a4.011,4.011,0,0,1-2.454.894A2.19,2.19,0,0,1,29.9,43.3a3.467,3.467,0,0,1-.593-2.212,12.884,12.884,0,0,1,.11-1.582q0.11-.879.33-1.919a13.6,13.6,0,0,0,6.335-1.3,3.808,3.808,0,0,0,2.219-3.45,2.256,2.256,0,0,0-.82-1.853,3.5,3.5,0,0,0-2.27-.667,6.806,6.806,0,0,0-2.7.549,7.751,7.751,0,0,0-2.373,1.6,11.347,11.347,0,0,0-3.354,7.954,5.116,5.116,0,0,0,1.091,3.486,3.829,3.829,0,0,0,3.04,1.245,5.8,5.8,0,0,0,3.435-1.04,8.164,8.164,0,0,0,2.512-3.149l-0.6-.4A8.01,8.01,0,0,1,34.164,43.137ZM31.871,32.582a3.494,3.494,0,0,1,2.739-1.428,1.773,1.773,0,0,1,1.289.469,1.655,1.655,0,0,1,.483,1.245,3.188,3.188,0,0,1-1.619,2.893,9.675,9.675,0,0,1-4.827,1.033A11.113,11.113,0,0,1,31.871,32.582ZM54.784,0.089l0.031,2.042a8.1,8.1,0,0,1,3.277.671,1.832,1.832,0,0,1,.869,1.707q0,0.305-.107,1.25t-0.32,2.195L53.412,38.768q-0.427,2.56-1.417,3.307a6.492,6.492,0,0,1-3.52.838L48.5,44.894q3.9-.213,5.182-0.259t1.981-.046q1.4,0,3.368.076t4.922,0.229V42.883H62.647a6.766,6.766,0,0,1-3.155-.564,1.892,1.892,0,0,1-1.021-1.783,12.883,12.883,0,0,1,.122-1.372q0.121-.975.335-2.1l2.286-13.9h5.06q3.475,0,4.481.823t1.006,3.383q0,0.488-.122,2.164a12.279,12.279,0,0,0-.091,1.25h1.585q0.518-4.572,1.113-8.489t1.265-7.422H73.956q-0.549,3.688-2.149,4.968t-7.391,1.28h-2.8L64.72,2.131h8.412q4.876,0,6.568,1.737t1.692,6.309q0,0.457-.015.945t-0.046,1.067h1.615l0.366-12.1H54.784Zm40.538,22.1,0.031-.122a17.14,17.14,0,0,0,.793-4.023A3.215,3.215,0,0,0,95,15.5a4.377,4.377,0,0,0-2.972-.991,8.1,8.1,0,0,0-5.3,2.042,15.691,15.691,0,0,0-4.115,5.883L84.044,23.1a21.652,21.652,0,0,1,2.911-4.4,3.562,3.562,0,0,1,2.454-1.387,1.586,1.586,0,0,1,1.265.549,2.214,2.214,0,0,1,.472,1.494A6.852,6.852,0,0,1,91.04,20.5a9.7,9.7,0,0,1-.32,1.3L86.269,36.97q-0.488,1.707-.64,2.53a8.111,8.111,0,0,0-.152,1.463,4.341,4.341,0,0,0,1.3,3.322,4.886,4.886,0,0,0,3.49,1.219A7.662,7.662,0,0,0,95.368,43.6a18.653,18.653,0,0,0,4.282-6.142l-1.311-.671a22.965,22.965,0,0,1-3.2,4.679A3.9,3.9,0,0,1,92.4,42.822a1.879,1.879,0,0,1-1.539-.61,2.938,2.938,0,0,1-.5-1.89,6.353,6.353,0,0,1,.076-0.914,9.977,9.977,0,0,1,.229-1.1ZM92.533,4.036a3.433,3.433,0,0,0-.869,2.393,2.644,2.644,0,0,0,.7,1.859,2.232,2.232,0,0,0,1.707.762A3.14,3.14,0,0,0,96.5,8a3.8,3.8,0,0,0,.96-2.667,1.993,1.993,0,0,0-.808-1.6,2.977,2.977,0,0,0-1.936-.655A2.815,2.815,0,0,0,92.533,4.036ZM117.74,21.5q2.942-4.587,4.77-4.587a0.46,0.46,0,0,1,.4.229,0.937,0.937,0,0,1,.153.533c0,0.163-.011.376-0.031,0.64s-0.03.447-.03,0.549a2.836,2.836,0,0,0,.685,2,2.346,2.346,0,0,0,1.814.747,2.1,2.1,0,0,0,1.722-.823,3.37,3.37,0,0,0,.655-2.164,4.166,4.166,0,0,0-1.021-2.956,3.548,3.548,0,0,0-2.728-1.1,6.72,6.72,0,0,0-4.755,2.362,26.725,26.725,0,0,0-4.6,7.178q0.4-1.646.594-3a16.638,16.638,0,0,0,.2-2.362,4.141,4.141,0,0,0-1.1-3.109,4.41,4.41,0,0,0-3.2-1.067,8.608,8.608,0,0,0-5.273,1.89,17.279,17.279,0,0,0-4.511,5.517L102.7,22.8a21.6,21.6,0,0,1,3.612-4.526,4.781,4.781,0,0,1,3.094-1.356,1.518,1.518,0,0,1,1.325.686,3.26,3.26,0,0,1,.473,1.875,11.282,11.282,0,0,1-.153,1.615q-0.152,1.006-.4,2.255L105.9,44.894h4.755l2.8-12.8A32.613,32.613,0,0,1,117.74,21.5Zm39.761-.594a14.933,14.933,0,0,0,.183-2.1,4.237,4.237,0,0,0-1.1-3.155,4.373,4.373,0,0,0-3.2-1.082,9.268,9.268,0,0,0-5.746,2.24,33,33,0,0,0-6.294,7.3q0.4-1.646.595-3a16.638,16.638,0,0,0,.2-2.362,4.145,4.145,0,0,0-1.1-3.109,4.414,4.414,0,0,0-3.2-1.067,8.608,8.608,0,0,0-5.273,1.89,17.292,17.292,0,0,0-4.511,5.517l1.219,0.823a21.6,21.6,0,0,1,3.612-4.526,4.785,4.785,0,0,1,3.094-1.356,1.52,1.52,0,0,1,1.326.686,3.26,3.26,0,0,1,.472,1.875,11.4,11.4,0,0,1-.152,1.615q-0.153,1.006-.4,2.255l-4.755,21.549h4.755l2.8-12.8A25.517,25.517,0,0,1,145.08,21.7q3.795-4.785,6.447-4.785a1.529,1.529,0,0,1,1.31.686,3.183,3.183,0,0,1,.488,1.875,11.4,11.4,0,0,1-.152,1.615q-0.153,1.006-.4,2.255l-4.755,21.549h4.755l2.8-12.8a24.421,24.421,0,0,1,5.152-10.424q3.87-4.663,6.888-4.663a2.5,2.5,0,0,1,1.875.594,2.918,2.918,0,0,1,.563,2.027,10.07,10.07,0,0,1-.35,2.195q-0.351,1.433-1.021,3.353l-4.237,11.8a13.217,13.217,0,0,0-.609,2.073,9.517,9.517,0,0,0-.214,1.92,4.35,4.35,0,0,0,1.28,3.353,5.088,5.088,0,0,0,3.6,1.189,7.608,7.608,0,0,0,5.09-1.936,18.673,18.673,0,0,0,4.267-6.111l-1.31-.671a22.3,22.3,0,0,1-3.216,4.663,4.034,4.034,0,0,1-2.789,1.432,2.013,2.013,0,0,1-1.463-.5,1.882,1.882,0,0,1-.518-1.417,7.335,7.335,0,0,1,.2-1.539,14.956,14.956,0,0,1,.594-1.966l3.627-10.3q1.037-2.9,1.464-4.618a12.331,12.331,0,0,0,.426-2.85,4.756,4.756,0,0,0-1.539-3.764,6.165,6.165,0,0,0-4.221-1.356,9.514,9.514,0,0,0-5.9,2.179,32.327,32.327,0,0,0-6.325,7.361Q157.317,22.157,157.5,20.907Z" transform="translate(-0.219 -0.094)"/>
</svg>
