<svg xmlns="http://www.w3.org/2000/svg" width="16.719" height="16.719" viewBox="0 0 16.719 16.719">
  <defs>
    <style>
      .cls-1 {
        fill-rule: evenodd;
      }
    </style>
  </defs>
  <path id="_" data-name="" class="cls-1" d="M7.233,12.8a4.333,4.333,0,0,1-3.179-1.321A4.333,4.333,0,0,1,2.733,8.3,4.334,4.334,0,0,1,4.054,5.126,4.334,4.334,0,0,1,7.233,3.8a4.334,4.334,0,0,1,3.179,1.321A4.334,4.334,0,0,1,11.733,8.3a4.334,4.334,0,0,1-1.321,3.179A4.334,4.334,0,0,1,7.233,12.8ZM16.5,15.758l-3.445-3.445A6.878,6.878,0,0,0,14.3,8.3a6.95,6.95,0,0,0-.557-2.747A6.925,6.925,0,0,0,9.981,1.791a7.048,7.048,0,0,0-5.494,0A6.925,6.925,0,0,0,.719,5.558a7.048,7.048,0,0,0,0,5.494,6.925,6.925,0,0,0,3.767,3.767,6.949,6.949,0,0,0,2.747.558,6.878,6.878,0,0,0,4.008-1.246l3.445,3.435a1.194,1.194,0,0,0,.9.382,1.286,1.286,0,0,0,.914-2.19h0Z" transform="translate(-0.156 -1.219)"/>
</svg>
