<svg xmlns="http://www.w3.org/2000/svg" width="519.361" height="94.62" viewBox="0 0 3644 664" shape-rendering="geometricPrecision" text-rendering="geometricPrecision" image-rendering="optimizeQuality" fill-rule="evenodd" clip-rule="evenodd"><defs><style><![CDATA[
    .fil0 {fill:#FEFEFE}
    .fil1 {fill:#FEFEFE;fill-rule:nonzero}
   ]]></style></defs><g id="Layer_x0020_1"><path class="fil0" d="M945 198l4 40c10-15 22-26 38-34 15-8 32-12 53-12 20 0 37 5 51 14 15 9 26 24 33 42 10-17 22-31 38-41s34-15 55-15c31 0 55 11 73 32s27 53 27 96v181h-55V319c0-30-6-51-16-64-10-12-25-18-46-18-19 0-34 6-46 19-11 14-18 30-20 50v195h-56V319c0-28-5-49-15-62-11-14-26-20-46-20-17 0-30 3-41 10s-19 17-25 29v225h-55V198h49zm439 148c0-44 12-81 36-110 25-29 57-44 99-44s75 15 100 44c24 28 36 65 36 110v6c0 46-12 83-36 111-25 29-58 43-99 43-42 0-75-14-100-43-24-29-36-66-36-111v-6zm55 6c0 32 7 59 20 79 14 21 34 32 61 32 26 0 46-11 60-32 13-20 20-47 20-79v-6c0-31-7-58-21-79-13-21-33-31-60-31-26 0-46 10-60 31-13 21-20 48-20 79v6zm333-154l4 45c10-16 22-29 38-37 15-9 32-14 52-14 32 0 57 10 75 29s27 48 27 88v192h-55V311c0-27-5-46-16-57-10-12-26-17-48-17-16 0-30 4-42 11-12 8-22 18-29 32v221h-55V198h49zm263 148c0-44 13-81 37-110s57-44 99-44 75 15 99 44c25 28 37 65 37 110v6c0 46-12 83-37 111-24 29-57 43-99 43s-75-14-99-43-37-66-37-111v-6zm56 6c0 32 6 59 20 79 13 21 34 32 60 32 27 0 46-11 60-32 14-20 21-47 21-79v-6c0-31-7-58-21-79s-34-31-60-31c-27 0-47 10-60 31-14 21-20 48-20 79v6zm550 4c0 45-10 82-30 109-21 28-50 41-87 41-15 0-28-2-39-8s-21-14-29-24v143h-95V198h88l4 33c8-12 19-22 30-29 12-7 25-10 40-10 38 0 67 15 88 44 20 28 30 66 30 114v6zm-94-6c0-26-4-46-11-62-8-15-19-23-36-23-11 0-20 2-27 6s-13 9-17 17v126c4 7 10 12 17 15 8 3 17 4 28 4 16 0 28-6 35-20 8-14 11-33 11-57v-6zm310 151c-2-5-5-11-7-17s-4-12-5-19c-9 13-20 23-33 30-12 8-28 11-46 11-29 0-52-8-70-25-18-16-27-38-27-66 0-30 11-53 34-69 22-17 56-25 102-25h35v-21c0-13-3-23-9-30-7-7-16-10-29-10-10 0-18 2-24 7-5 5-8 13-8 24h-91l-1-2c-1-27 10-50 35-69 24-19 56-28 96-28 37 0 67 10 91 28 23 19 35 46 35 80v115c0 16 1 31 4 45 2 14 6 27 12 41h-94zm-62-62c9 0 18-2 26-6 7-4 14-8 19-14v-47h-34c-15 0-26 3-33 10-6 8-10 17-10 28 0 8 3 15 9 21 6 5 14 8 23 8zm180-89c0-48 10-86 30-114 21-29 50-44 87-44 17 0 31 4 43 12 12 7 22 18 31 32l7-38h82v291c0 40-14 73-41 97-28 24-66 37-113 37-15 0-32-3-49-7s-33-10-49-17l16-70c13 6 27 10 39 13s27 4 43 4c19 0 34-5 44-15 11-11 16-25 16-43v-15c-9 11-19 19-30 25-12 5-25 8-39 8-37 0-66-13-87-41-20-28-30-64-30-109v-6zm94 6c0 24 3 43 11 57 7 14 19 20 36 20 10 0 19-1 26-4 8-3 14-8 19-15V287c-5-7-11-12-18-16-8-4-16-6-26-6-17 0-29 8-37 23-7 16-11 36-11 62v6zm379 150c-45 0-81-14-107-42-27-28-40-63-40-105v-10c0-47 12-84 36-113 24-30 59-44 104-44 41 0 73 12 97 37 23 25 34 58 34 100v49h-172l-1 2c2 16 8 28 19 38 11 11 25 15 43 15 17 0 32-1 42-4 11-2 25-7 41-14l23 57c-14 10-31 18-52 25-21 6-43 9-67 9zm-7-241c-14 0-24 5-31 14-7 10-11 23-12 39l1 1h81v-7c0-15-3-27-9-35-7-8-17-12-30-12z"/><path class="fil1" d="M138 0h388c38 0 72 15 97 40s41 60 41 98v388c0 38-16 72-41 97s-59 41-97 41H138c-38 0-73-16-98-41S0 564 0 526V138c0-38 15-73 40-98s60-40 98-40zm388 118H138c-5 0-10 2-14 6s-6 9-6 14v388c0 5 2 10 6 14s9 6 14 6h388c5 0 10-2 14-6s6-9 6-14V138c0-5-2-10-6-14s-9-6-14-6z"/><path class="fil1" d="M425 367c30-12 65 3 76 33 12 30-3 64-33 76-21 8-43 15-67 19-22 4-46 6-70 6s-47-2-70-6c-22-4-44-10-64-17-31-12-46-46-35-76 12-31 46-46 76-35 13 5 28 9 43 12 16 2 32 4 50 4 17 0 34-2 50-4 16-3 31-7 44-12z"/><circle class="fil0" cx="332" cy="242" r="94"/><path class="fil0" d="M3602 165c19 0 34 15 34 34 0 18-15 33-34 33s-34-15-34-33c0-19 15-34 34-34zm0-8c23 0 42 19 42 42s-19 41-42 41-42-18-42-41 19-42 42-42zm-7 46v18h-9v-45h17c5 0 9 1 12 3 3 3 5 6 5 10 0 2-1 4-2 6s-3 3-6 4c3 1 5 2 6 4s2 4 2 7v7c1 1 1 2 2 3v1h-9c-1-1-1-2-2-4v-7c0-2-1-4-2-5-1-2-3-2-5-2h-9zm0-7h8c3 0 5-1 6-2s2-2 2-5c0-2-1-3-2-4-1-2-3-2-6-2h-8v13z"/></g></svg>
